<?xml version="1.0" encoding="UTF-8" standalone="no"?>
<!-- Created with Inkscape (http://www.inkscape.org/) -->

<svg
   width="1920"
   height="1080"
   viewBox="0 0 507.99999 285.75001"
   version="1.1"
   id="svg957"
   inkscape:version="1.1 (c4e8f9ed74, 2021-05-24)"
   sodipodi:docname="deep_blue.svg"
   inkscape:export-filename="/home/n1k0n/Pictures/kiss_blue_wp.png"
   inkscape:export-xdpi="96"
   inkscape:export-ydpi="96"
   xmlns:inkscape="http://www.inkscape.org/namespaces/inkscape"
   xmlns:sodipodi="http://sodipodi.sourceforge.net/DTD/sodipodi-0.dtd"
   xmlns="http://www.w3.org/2000/svg"
   xmlns:svg="http://www.w3.org/2000/svg">
  <sodipodi:namedview
     id="namedview959"
     pagecolor="#ffffff"
     bordercolor="#666666"
     borderopacity="1.0"
     inkscape:pageshadow="2"
     inkscape:pageopacity="0.0"
     inkscape:pagecheckerboard="0"
     inkscape:document-units="px"
     showgrid="false"
     units="px"
     inkscape:zoom="0.37476659"
     inkscape:cx="924.57547"
     inkscape:cy="472.29396"
     inkscape:window-width="1910"
     inkscape:window-height="1005"
     inkscape:window-x="5"
     inkscape:window-y="42"
     inkscape:window-maximized="1"
     inkscape:current-layer="layer1"
     inkscape:snap-bbox="true"
     inkscape:bbox-paths="true"
     inkscape:snap-bbox-edge-midpoints="true"
     inkscape:snap-bbox-midpoints="true"
     inkscape:bbox-nodes="true" />
  <defs
     id="defs954">
    <rect
       x="252.53088"
       y="1419.1063"
       width="178.51221"
       height="225.75755"
       id="rect6935" />
    <rect
       x="252.53088"
       y="1419.1063"
       width="178.51221"
       height="225.75755"
       id="rect6935-3" />
  </defs>
  <g
     inkscape:label="Layer 1"
     inkscape:groupmode="layer"
     id="layer1">
    <rect
       style="fill:#4894ff;fill-opacity:1;stroke-width:0.264583"
       id="rect42753"
       width="154.70998"
       height="224.79706"
       x="718.92297"
       y="-34.594433" />
    <rect
       style="fill:#4894ff;stroke-width:0.264583;fill-opacity:1"
       id="rect1108"
       x="2.8421709e-14"
       y="-7.1054274e-15"
       width="508"
       height="285.75" />
    <path
       style="fill:#000000;stroke-width:0.0605824"
       d="m 733.64057,333.01357 c -0.052,-0.0627 -0.0734,-0.45759 -0.0739,-1.36599 -6.8e-4,-1.25946 10e-4,-1.28007 0.14239,-1.43311 0.0787,-0.0854 0.22986,-0.19224 0.33587,-0.23742 0.10602,-0.0452 0.20945,-0.10916 0.22985,-0.14217 0.0204,-0.033 0.21326,-0.15855 0.42858,-0.27896 0.21531,-0.1204 0.43221,-0.27707 0.48199,-0.34815 0.0801,-0.1143 0.0905,-4.30037 0.0905,-36.21854 0,-32.72769 -0.009,-36.09818 -0.0952,-36.18451 -0.0758,-0.0759 -0.24135,-0.0952 -0.81429,-0.0952 -0.39894,0 -0.73525,-0.0261 -0.75538,-0.0587 -0.02,-0.0323 -0.0368,-1.49502 -0.0375,-3.25048 -10e-4,-2.56627 0.0144,-3.20162 0.0782,-3.24208 0.0436,-0.0277 0.39424,-0.0507 0.77909,-0.0513 0.46231,-6.8e-4 0.72439,-0.0256 0.77242,-0.0736 0.0523,-0.0523 0.0727,-0.45774 0.0727,-1.44186 0,-0.98413 0.0204,-1.38961 0.0727,-1.44187 0.0485,-0.0485 0.31637,-0.0727 0.80575,-0.0727 0.48937,0 0.75721,-0.0242 0.80574,-0.0727 0.0523,-0.0523 0.0727,-0.46012 0.0727,-1.45259 0,-1.36816 10e-4,-1.38064 0.13767,-1.47008 0.1618,-0.10602 0.92598,-0.27609 1.24057,-0.27609 0.12058,0 0.37098,-0.0386 0.55642,-0.0858 0.18545,-0.0472 0.56891,-0.11921 0.85213,-0.15999 0.28322,-0.0408 0.58311,-0.10013 0.66641,-0.13188 0.0833,-0.0318 0.39681,-0.0825 0.69669,-0.11277 0.29989,-0.0303 0.66793,-0.0794 0.81787,-0.10925 0.74827,-0.14883 2.13473,-0.38869 2.48388,-0.42972 0.35281,-0.0415 1.18582,-0.20711 1.84776,-0.36744 0.13328,-0.0323 0.50132,-0.0989 0.81786,-0.14812 0.31655,-0.0492 0.75274,-0.11931 0.96932,-0.15583 0.21658,-0.0365 0.54373,-0.09 0.72699,-0.11877 0.18326,-0.0288 0.48314,-0.0803 0.66641,-0.11453 0.18326,-0.0342 0.63308,-0.10551 0.99961,-0.15851 0.36652,-0.053 0.80271,-0.1328 0.96931,-0.17735 0.16661,-0.0445 0.53464,-0.11453 0.81787,-0.15552 0.28322,-0.041 0.56218,-0.0989 0.61991,-0.1286 0.0577,-0.0297 0.33036,-0.0817 0.60583,-0.11549 0.27547,-0.0338 0.66443,-0.0988 0.86435,-0.14438 0.19992,-0.0456 0.60264,-0.11561 0.89492,-0.15552 0.63134,-0.0862 0.64993,-0.10752 0.64993,-0.74491 0,-0.54488 0.0608,-0.61855 0.49493,-0.59966 0.56771,0.0247 0.53497,0.14455 0.53497,-1.95834 0,-2.07772 -0.0106,-2.02935 0.46122,-2.11322 0.26134,-0.0465 1.07742,-0.36764 1.26372,-0.49736 0.19195,-0.13365 0.38937,-0.0989 0.92527,0.16293 0.27709,0.13537 0.65892,0.28653 0.84852,0.33591 0.5953,0.15506 0.56029,0.0229 0.56029,2.11585 0,1.49336 0.0156,1.8439 0.0846,1.90117 0.0484,0.0402 0.25237,0.0656 0.47659,0.0594 0.21559,-0.006 0.42287,0.008 0.46063,0.0316 0.0419,0.0259 0.0687,0.23144 0.0687,0.52749 0,0.26679 0.0267,0.53489 0.0593,0.59578 0.045,0.0841 0.18671,0.12811 0.59068,0.18327 0.29228,0.0399 0.695,0.11021 0.89492,0.15624 0.19992,0.046 0.59522,0.10974 0.87844,0.14159 0.28323,0.0319 0.59061,0.0867 0.68308,0.12194 0.0925,0.0352 0.35147,0.0917 0.57554,0.12563 0.22407,0.0339 0.5846,0.10122 0.80119,0.14963 0.21658,0.0484 0.62551,0.11754 0.90873,0.15361 0.28322,0.0361 0.69216,0.10425 0.90874,0.15151 0.38465,0.0839 1.27055,0.22897 2.0598,0.33723 0.21658,0.0297 0.61188,0.0977 0.87845,0.15112 0.26656,0.0534 0.62096,0.11923 0.78757,0.14628 0.1666,0.0271 0.61642,0.1089 0.99961,0.18188 0.82333,0.15683 1.10939,0.20856 1.87805,0.33959 0.31654,0.054 0.82723,0.14998 1.13486,0.21336 0.30764,0.0634 0.699,0.11524 0.8697,0.11524 0.17071,0 0.47144,0.0417 0.6683,0.0927 0.19685,0.051 0.59609,0.13046 0.88719,0.17654 0.29109,0.0461 0.6792,0.11245 0.86246,0.14746 0.18327,0.035 0.56494,0.0951 0.84816,0.13362 0.40859,0.0555 0.76631,0.15618 0.92112,0.25925 0.007,0.005 0.0273,0.66254 0.0454,1.46223 l 0.033,1.45397 0.63262,0.0174 c 0.34794,0.01 0.66396,0.0434 0.70227,0.0752 0.0481,0.04 0.0734,0.49133 0.0818,1.46161 0.007,0.7721 0.0262,1.42663 0.0435,1.45451 0.0172,0.0279 0.42168,0.0507 0.89878,0.0507 0.67825,0 0.88314,0.0189 0.93934,0.0866 0.0534,0.0644 0.0719,0.89626 0.0719,3.24065 0,1.73471 -0.017,3.18151 -0.0378,3.21512 -0.0225,0.0364 -0.38589,0.0611 -0.90051,0.0611 -0.59025,0 -0.88572,0.023 -0.93545,0.0727 -0.0564,0.0564 -0.0727,8.18112 -0.0727,36.19712 v 36.12443 l 0.22718,0.14287 c 0.12495,0.0786 0.30719,0.19482 0.40499,0.25833 0.0978,0.0635 0.37391,0.22452 0.61361,0.3578 0.79207,0.4404 0.70875,0.24103 0.72097,1.72548 0.01,1.18235 0.002,1.3048 -0.10012,1.40594 -0.10698,0.107 -0.982,0.11074 -25.48779,0.10918 -22.13489,-0.001 -25.38634,-0.0129 -25.45016,-0.0898 z m 44.36691,-4.99083 c 0.0922,-0.0765 0.10015,-0.68987 0.10015,-7.70169 0,-6.38432 -0.0135,-7.62973 -0.0832,-7.68757 -0.11745,-0.0975 -13.53081,-0.096 -13.64829,0.002 -0.0673,0.0558 -0.0812,1.38277 -0.0804,7.67833 5.2e-4,4.18595 0.0218,7.64358 0.0472,7.68362 0.0715,0.1125 0.50291,0.11927 7.25791,0.11393 5.25076,-0.004 6.3232,-0.0189 6.40659,-0.0881 z m -12.79178,-0.5045 c -0.10556,-0.10556 -0.10556,-14.22825 0,-14.3338 0.0555,-0.0555 1.46244,-0.0727 5.96304,-0.0727 5.2502,0 5.90059,0.0102 5.98464,0.0943 0.0842,0.0843 0.0944,0.84566 0.0956,7.144 0.001,6.34157 -0.008,7.0593 -0.0943,7.1453 -0.0858,0.0858 -0.70149,0.0956 -5.98594,0.0956 -4.5006,0 -5.9075,-0.0172 -5.96304,-0.0727 z m -11.31483,0.50339 c 0.0673,-0.10893 0.0396,-15.35295 -0.028,-15.42059 -0.0453,-0.0453 -2.09885,-0.0648 -6.80743,-0.0648 -5.62585,0 -6.75919,0.0138 -6.84278,0.0831 -0.0922,0.0765 -0.10019,0.68854 -0.10019,7.697 0,5.8411 0.0169,7.63077 0.0727,7.68655 0.0886,0.0886 13.65106,0.10717 13.70571,0.0187 z m -12.91814,-0.56398 c -0.0557,-0.0557 -0.0725,-1.72825 -0.0718,-7.16387 5.2e-4,-3.90014 0.023,-7.12587 0.0499,-7.1683 0.0391,-0.0616 1.26109,-0.0775 6.06438,-0.0788 3.30848,-8.6e-4 6.02911,0.0121 6.04586,0.0288 0.0459,0.0459 0.0341,14.31601 -0.0119,14.3904 -0.0606,0.098 -11.97833,0.0899 -12.07645,-0.008 z m 18.55259,0.56352 c 0.0185,-0.0299 0.0343,-15.65787 0.0351,-34.72874 10e-4,-33.1107 -0.003,-34.67796 -0.10578,-34.75498 -0.1354,-0.10178 -0.67437,-0.0608 -0.74895,0.057 -0.0593,0.0936 -0.0775,69.23109 -0.0183,69.38533 0.0282,0.0734 0.12648,0.0958 0.4205,0.0958 0.21106,0 0.39887,-0.0245 0.41737,-0.0544 z m -5.63151,-18.42135 c 0.0454,-0.0735 0.0398,-15.23707 -0.006,-15.3557 -0.0326,-0.0851 -0.72392,-0.0947 -6.81075,-0.0947 -6.07779,0 -6.78421,0.01 -6.86962,0.0952 -0.0855,0.0855 -0.0952,0.86362 -0.0952,7.65934 0,6.8339 0.009,7.57345 0.0963,7.6605 0.087,0.087 0.75602,0.096 6.87405,0.0927 3.88057,-0.002 6.79191,-0.0266 6.81095,-0.0574 z m -12.89857,-0.46055 c -0.0855,-0.0855 -0.0952,-0.82162 -0.0952,-7.19719 0,-5.443 0.017,-7.11898 0.0727,-7.17469 0.0976,-0.0976 12.01585,-0.10634 12.07607,-0.009 0.0217,0.0351 0.0398,3.28273 0.0402,7.21697 6.9e-4,5.95105 -0.013,7.1619 -0.0813,7.20516 -0.0451,0.0286 -2.74497,0.0524 -5.99965,0.0529 -5.29966,8.6e-4 -5.92755,-0.009 -6.0128,-0.0943 z m 36.98801,0.45506 c 0.11119,-0.0595 0.11438,-0.27373 0.11438,-7.68035 0,-5.84522 -0.0169,-7.63606 -0.0727,-7.69183 -0.0557,-0.0557 -1.65814,-0.0727 -6.84369,-0.0727 -6.63226,0 -6.77226,0.002 -6.83369,0.11718 -0.097,0.18121 -0.0865,15.22274 0.0107,15.31992 0.0957,0.0957 13.44644,0.10334 13.625,0.008 z m -12.74423,-0.54744 c -0.10002,-0.0573 -0.10602,-0.46112 -0.10602,-7.13379 0,-5.42046 0.017,-7.09 0.0727,-7.14571 0.0555,-0.0555 1.46244,-0.0727 5.96304,-0.0727 5.27408,0 5.9003,0.01 5.98554,0.0952 0.0854,0.0854 0.0952,0.81048 0.0952,7.07466 0,6.23745 -0.0101,6.99386 -0.0949,7.11495 l -0.0949,0.13548 -5.85733,-0.004 c -3.79906,-0.002 -5.89458,-0.025 -5.96334,-0.0644 z m 12.78592,-17.8781 c 0.0558,-0.0558 0.0727,-1.85415 0.0727,-7.72576 v -7.65305 l -0.15136,-0.0575 c -0.21848,-0.0831 -13.38759,-0.0817 -13.54287,10e-4 -0.11672,0.0625 -0.11856,0.18158 -0.11856,7.71288 0,5.86878 0.0169,7.66635 0.0727,7.72212 0.10553,0.10553 13.56187,0.10553 13.6674,0 z m -12.81924,-0.54524 c -0.10556,-0.10556 -0.10556,-14.28882 0,-14.39438 0.0555,-0.0555 1.46131,-0.0727 5.95797,-0.0727 5.55251,0 5.89077,0.006 5.98229,0.10719 0.0877,0.0969 0.0974,0.78312 0.10175,7.1732 0.004,6.39299 -0.004,7.07522 -0.0919,7.1627 -0.0872,0.0872 -0.67452,0.0967 -5.98703,0.0967 -4.5006,0 -5.9075,-0.0172 -5.96304,-0.0727 z m -12.32246,-0.18175 c 0.10554,-0.10554 0.10554,-13.98592 0,-14.09147 -0.0955,-0.0955 -11.56506,-0.1062 -11.74296,-0.011 -0.11227,0.0601 -0.11536,0.24356 -0.11806,7.02236 -0.003,6.27644 0.007,6.9701 0.0933,7.05673 0.0864,0.0864 0.6816,0.0961 5.89555,0.0961 4.42992,0 5.81663,-0.0172 5.87217,-0.0727 z m -4.13379,-17.80557 c 0.0178,-0.0288 0.0321,-1.48861 0.0317,-3.24396 -5.2e-4,-2.53794 -0.0167,-3.20169 -0.0788,-3.24109 -0.13147,-0.0834 -3.34353,-0.0634 -3.42829,0.0213 -0.11186,0.11186 -0.10413,6.36869 0.008,6.46174 0.0532,0.0441 0.61639,0.0725 1.65087,0.0831 1.60744,0.0166 1.76034,0.01 1.81651,-0.0811 z m 19.39807,-3.16931 c 0.0105,-2.08921 -0.005,-3.17005 -0.0476,-3.24893 -0.0604,-0.11288 -0.13939,-0.1182 -1.7553,-0.1182 -1.61087,0 -1.69506,0.006 -1.75476,0.11718 -0.0409,0.0764 -0.0627,1.20127 -0.0627,3.23374 0,2.52174 0.0154,3.12935 0.0807,3.18354 0.1145,0.095 3.23797,0.1238 3.40279,0.0313 0.1184,-0.0664 0.12153,-0.13937 0.13686,-3.19868 z m -24.1699,3.16365 c 0.0547,-0.0547 0.0727,-0.8571 0.0727,-3.23902 0,-3.06846 -0.004,-3.16827 -0.11718,-3.22905 -0.16854,-0.0902 -3.4967,-0.0852 -3.55266,0.005 -0.0525,0.085 -0.049,6.38817 0.004,6.4733 0.0583,0.0944 3.49872,0.0842 3.59351,-0.0105 z m 9.6907,-3.1616 c 0.0113,-2.31573 -0.003,-3.2269 -0.0529,-3.28659 -0.0549,-0.0661 -0.4051,-0.0826 -1.7553,-0.0826 -1.63713,0 -1.6887,0.004 -1.75306,0.12389 -0.0824,0.15407 -0.071,6.21368 0.0121,6.3745 0.0511,0.099 0.18411,0.10575 1.79435,0.0909 l 1.73912,-0.0161 z m 19.34039,0.0537 c 0.0239,-2.48392 0.014,-3.17912 -0.0468,-3.2866 -0.0771,-0.13619 -0.0786,-0.13631 -1.74573,-0.13631 -1.03435,0 -1.71314,0.0238 -1.78578,0.0627 -0.11356,0.0608 -0.11719,0.16059 -0.11719,3.22905 0,2.4033 0.0177,3.18406 0.0736,3.23992 0.0551,0.0551 0.51521,0.0696 1.83262,0.0576 l 1.75902,-0.016 z m 4.71331,3.10787 c 0.0547,-0.0547 0.0727,-0.84988 0.0727,-3.20654 0,-2.76817 -0.0111,-3.14495 -0.0952,-3.22904 -0.0821,-0.0821 -0.33218,-0.0952 -1.81339,-0.0952 -1.62492,0 -1.72014,0.006 -1.75413,0.11324 -0.053,0.16683 -0.0624,6.33274 -0.01,6.41778 0.0642,0.10381 3.49606,0.10358 3.59988,-2.4e-4 z m -28.99926,-7.60463 c 0.0265,-0.0265 0.0515,-1.47356 0.0557,-3.21575 0.006,-2.3937 -0.0103,-3.18914 -0.0656,-3.2557 -0.0607,-0.0731 -0.35317,-0.0881 -1.71958,-0.0881 -1.19983,0 -1.66621,0.0197 -1.71919,0.0727 -0.0547,0.0547 -0.0727,0.86364 -0.0727,3.26844 0,2.70567 0.0133,3.20317 0.0865,3.24418 0.11141,0.0624 3.37116,0.0379 3.43488,-0.0258 z m 4.88443,0.0143 c 0.10782,-0.0387 0.11079,-6.3934 0.003,-6.50115 -0.053,-0.053 -0.52005,-0.0727 -1.72227,-0.0727 -1.4139,0 -1.66308,0.0135 -1.74411,0.0945 -0.0834,0.0834 -0.0939,0.46616 -0.0892,3.24194 0.005,2.93468 0.0126,3.15246 0.1122,3.22235 0.08,0.0561 0.51709,0.0708 1.73574,0.0586 0.89588,-0.009 1.66295,-0.0286 1.7046,-0.0435 z m 19.32746,-0.004 0.13464,-0.0943 v -3.12054 c 0,-2.03521 -0.0218,-3.1613 -0.0627,-3.23772 -0.0597,-0.11154 -0.14377,-0.11718 -1.74477,-0.11718 -1.2275,0 -1.70171,0.0196 -1.75476,0.0727 -0.11186,0.11186 -0.10414,6.36869 0.008,6.46173 0.0531,0.0441 0.61793,0.0729 1.65087,0.0842 0.86361,0.009 1.58458,0.0236 1.60215,0.0313 0.0176,0.008 0.0925,-0.0284 0.1666,-0.0802 z m -28.95703,-0.039 c 0.0547,-0.0547 0.0727,-0.8571 0.0727,-3.23903 0,-3.06845 -0.004,-3.16826 -0.11718,-3.22904 -0.16458,-0.0881 -3.49659,-0.0854 -3.55114,0.003 -0.0527,0.0853 -0.0524,6.38756 3.5e-4,6.47289 0.0599,0.097 3.49795,0.0897 3.59528,-0.008 z m 24.27967,0.005 c 0.023,-0.0371 0.0389,-1.50047 0.0353,-3.25183 -0.005,-2.50798 -0.0228,-3.19469 -0.0836,-3.23328 -0.13095,-0.0831 -3.46413,-0.0626 -3.54856,0.0219 -0.0547,0.0547 -0.0727,0.86206 -0.0727,3.26135 0,1.75376 0.0182,3.20683 0.0404,3.22904 0.0734,0.0734 3.58323,0.0472 3.62915,-0.0271 z m 9.64399,-3.16677 c 0.0113,-2.31574 -0.003,-3.22691 -0.0529,-3.2866 -0.0957,-0.11534 -3.36992,-0.12151 -3.52702,-0.007 -0.0957,0.07 -0.10407,0.32223 -0.10665,3.21474 -0.002,2.3618 0.0153,3.16056 0.0702,3.22671 0.0613,0.0738 0.3554,0.0853 1.83682,0.0719 l 1.76387,-0.0161 z m 3.8178,-5.93476 c 0.11807,-0.11807 0.1199,-4.94083 0.002,-5.01566 -0.0436,-0.0277 -10.22665,-0.0507 -22.62897,-0.0512 -22.23268,-8.6e-4 -22.55055,6.9e-4 -22.61238,0.11626 -0.0401,0.075 -0.0627,0.96471 -0.0627,2.4723 0,2.39964 0.009,2.50456 0.22717,2.5682 0.0417,0.0121 10.18228,0.0152 22.53474,0.007 18.68008,-0.0128 22.47267,-0.0291 22.54023,-0.0966 z m -22.73225,-0.44848 c -12.91324,-0.009 -22.01095,-0.0377 -22.04295,-0.0697 -0.0898,-0.0898 -0.0575,-4.01783 0.0335,-4.07564 0.0416,-0.0264 9.99293,-0.0485 22.11402,-0.049 l 22.03836,-8.6e-4 0.0549,0.14452 c 0.0716,0.18828 0.0768,3.68919 0.006,3.87601 -0.0299,0.0787 -0.0906,0.15366 -0.13477,0.16654 -0.0442,0.0129 -9.97519,0.0165 -22.06885,0.008 z m 0.75433,-16.53034 c 0.12575,-0.12261 0.15112,-2.38297 0.0286,-2.55029 -0.069,-0.0942 -0.17727,-0.10877 -0.80844,-0.10877 -0.48928,0 -0.75288,0.0241 -0.80202,0.0733 -0.0931,0.0932 -0.11478,2.47937 -0.0236,2.59979 0.0393,0.0519 0.24172,0.0875 0.57553,0.10139 0.64803,0.0269 0.9146,-0.003 1.0299,-0.1154 z"
       id="path1454" />
    <text
       xml:space="preserve"
       transform="matrix(0.58061895,0,0,0.58061895,100.53029,-739.12941)"
       id="text6933"
       style="font-size:40px;line-height:1.25;font-family:sans-serif;letter-spacing:0px;word-spacing:0px;white-space:pre;shape-inside:url(#rect6935);fill:#a8ff48;fill-opacity:1"><tspan
         x="252.53125"
         y="1454.4961"
         id="tspan46708"><tspan
           style="font-family:'Hack Nerd Font';-inkscape-font-specification:'Hack Nerd Font'"
           id="tspan46706">Keep
</tspan></tspan><tspan
         x="252.53125"
         y="1504.4961"
         id="tspan46712"><tspan
           style="font-family:'Hack Nerd Font';-inkscape-font-specification:'Hack Nerd Font'"
           id="tspan46710">It
</tspan></tspan><tspan
         x="252.53125"
         y="1554.4961"
         id="tspan46716"><tspan
           style="font-family:'Hack Nerd Font';-inkscape-font-specification:'Hack Nerd Font'"
           id="tspan46714">Simple
</tspan></tspan><tspan
         x="252.53125"
         y="1604.4961"
         id="tspan46720"><tspan
           style="font-family:'Hack Nerd Font';-inkscape-font-specification:'Hack Nerd Font'"
           id="tspan46718">Stupid</tspan></tspan></text>
    <text
       xml:space="preserve"
       transform="matrix(0.58061895,0,0,0.58061895,619.55441,-799.85923)"
       id="text6933-6"
       style="font-size:40px;line-height:1.25;font-family:sans-serif;letter-spacing:0px;word-spacing:0px;white-space:pre;shape-inside:url(#rect6935-3);fill:#a8ff48;fill-opacity:1"><tspan
         x="252.53125"
         y="1454.4961"
         id="tspan46726"><tspan
           style="fill:#ffffff"
           id="tspan46722">K</tspan><tspan
           style="font-family:'Hack Nerd Font';-inkscape-font-specification:'Hack Nerd Font'"
           id="tspan46724">eep
</tspan></tspan><tspan
         x="252.53125"
         y="1504.4961"
         id="tspan46732"><tspan
           style="fill:#ffffff"
           id="tspan46728">I</tspan><tspan
           style="font-family:'Hack Nerd Font';-inkscape-font-specification:'Hack Nerd Font'"
           id="tspan46730">t
</tspan></tspan><tspan
         x="252.53125"
         y="1554.4961"
         id="tspan46738"><tspan
           style="fill:#ffffff"
           id="tspan46734">S</tspan><tspan
           style="font-family:'Hack Nerd Font';-inkscape-font-specification:'Hack Nerd Font'"
           id="tspan46736">imple
</tspan></tspan><tspan
         x="252.53125"
         y="1604.4961"
         id="tspan46744"><tspan
           style="fill:#ffffff"
           id="tspan46740">S</tspan><tspan
           style="font-family:'Hack Nerd Font';-inkscape-font-specification:'Hack Nerd Font'"
           id="tspan46742">tupid</tspan></tspan></text>
  </g>
</svg>
